<svg xmlns="http://www.w3.org/2000/svg" width="613.013" height="889.588">
  <defs>
    <clipPath id="a">
      <path d="M0 1000h1000V0H0v1000z"/>
    </clipPath>
  </defs>
  <g clip-path="url(#a)" transform="matrix(1.25 0 0 -1.25 -318.43 1070)">
    <path d="M603.896 499.423c-27.286-28.09-63.67-44.94-102.65-44.94-41.58 0-77.965 16.85-105.256 44.94-27.286 26.84-44.18 66.163-44.18 108.606 0 42.444 16.894 81.77 44.18 109.232 27.29 28.09 63.675 44.32 105.256 44.32 38.98 0 75.364-16.23 102.65-44.32 26.64-27.462 44.183-66.788 44.183-109.233 0-42.444-17.545-81.767-44.184-108.607M501.38 856.003c-68.83 0-131.924-28.24-175.662-73.7-44.453-45.463-70.978-106.08-70.978-174.274 0-68.19 26.525-129.498 70.978-174.27 43.738-44.773 106.833-73.703 175.663-73.703 65.96 0 129.054 28.93 171.358 73.704 44.45 44.772 72.412 106.08 72.412 174.27 0 68.194-27.963 128.81-72.412 174.272-42.304 45.46-105.4 73.7-171.357 73.7M521.087 302.587c-.89 1.103-1.842 2.17-2.866 3.195-7.714 7.715-17.748 11.963-28.253 11.963-.092 0-.183-.006-.275-.007-.094 0-.187.007-.28.007-10.653 0-20.706-4.186-28.306-11.786-1.536-1.537-2.93-3.167-4.183-4.87l-29.882-29.883c-8.028-8.028-12.487-18.218-12.555-28.692-.068-10.447 4.223-20.528 12.082-28.387 7.677-7.677 17.687-11.905 28.187-11.905 10.65 0 20.912 4.395 28.894 12.376l6.106 6.105 63.817-63.817c8.098-8.097 18.374-12.556 28.937-12.556 10.358 0 20.352 4.29 28.143 12.08 16.137 16.138 15.934 40.678-.472 57.084l-89.09 89.09z" fill="#f15a24"/>
  </g>
</svg>
