<svg xmlns="http://www.w3.org/2000/svg" width="411.023" height="549.212">
  <defs>
    <clipPath id="a">
      <path d="M0 683.15h572.6V0H0v683.15z"/>
    </clipPath>
  </defs>
  <g clip-path="url(#a)" transform="matrix(1.25 0 0 -1.25 -152.36 701.58)">
    <path d="M321.976 333.556c2.73-15.882.902-39.162-23.317-59.89-16.413-14.04-36.123-21.464-56.997-21.464-36.597 0-72.754 23.028-87.933 56-11.937 25.925-9.482 53.386 6.68 78.663 22.78 29.703 58.58 48.893 98.792 48.893.818 0 1.628-.015 2.44-.032h.01c2.53-.045 4.91 1.423 5.97 3.8 0 .002 0 .006.002.01.04.083.07.17.102.258.046.117.093.234.136.354l.008.022 24.906 77.003c1.062 3.286-.663 6.825-3.906 8.01l-22.08 8.07 4.66 13.375 119.437-42.532-4.396-12.09-19.78 8.018c-1.588.644-3.363.626-4.932-.047-1.572-.672-2.81-1.944-3.44-3.536l-29.97-75.61c-.018-.05-.03-.102-.05-.15-.048-.13-.095-.26-.13-.39-.022-.08-.045-.163-.07-.243-.025-.12-.057-.24-.078-.36-.02-.1-.033-.196-.047-.293-.02-.106-.033-.21-.04-.314-.015-.11-.02-.223-.024-.334-.005-.092-.01-.185-.01-.275 0-.12.005-.237.01-.356.006-.086.01-.173.022-.26.012-.117.025-.234.043-.35.014-.09.025-.18.045-.267.02-.11.047-.218.072-.326.024-.095.054-.188.08-.283.027-.1.058-.195.094-.29.033-.104.074-.203.113-.304.036-.086.073-.17.112-.255.047-.106.097-.21.154-.312.04-.08.084-.156.127-.234.058-.1.12-.2.183-.298l.16-.23c.068-.088.132-.176.2-.262.068-.083.137-.165.21-.246.06-.073.13-.142.196-.215.084-.088.175-.172.27-.255.062-.057.12-.113.188-.167.1-.088.212-.17.32-.252.044-.033.087-.067.126-.1 22.922-16.105 39.47-39.26 47.532-65.392 1.534-7.156 1.295-14.38-3.63-19.075-2.49-2.377-5.633-3.582-9.34-3.582-20.977 0-54.346 38.145-54.68 38.53l-.4-.32c.087-.123 8.888-12.593 11.848-29.812m125.202-120.052c-3.94 3.01-9.578 2.256-12.59-1.69l-27.467-36.008-44.665 44.706c22.04 25.082 34.084 56.928 34.084 90.63 0 22.454-5.532 44.734-15.996 64.432-9.334 17.57-22.56 33.075-38.427 45.13l25.766 64.992 19.955-8.088c1.61-.655 3.42-.624 5.013.084 1.59.71 2.828 2.033 3.422 3.67l8.878 24.422c.586 1.606.504 3.38-.224 4.928-.728 1.55-2.04 2.743-3.655 3.316L269.667 560.89c-1.605.573-3.377.48-4.917-.258-1.544-.74-2.725-2.06-3.287-3.676l-8.865-25.447c-1.156-3.315.562-6.944 3.856-8.146l22.208-8.122-21.557-66.67c-35.892-.534-69.55-14.768-94.993-40.233-25.94-25.963-40.222-60.48-40.222-97.198 0-36.715 14.283-71.232 40.222-97.195 6.84-6.846 14.275-12.87 22.187-18.045l-50.533-74.01h75.417c4.96 0 8.98 4.025 8.98 8.99 0 4.964-4.02 8.988-8.98 8.988h-41.39L200 187.047c18.25-8.743 38.374-13.36 59.202-13.36 33.68 0 65.495 12.056 90.552 34.114l59.18-59.236 39.932 52.34c3.01 3.945 2.253 9.586-1.688 12.6" fill="#3a9bcd"/>
  </g>
</svg>
