<?xml version="1.0" encoding="UTF-8" standalone="no"?>
<!-- Created with Inkscape (http://www.inkscape.org/) -->

<svg
   xmlns:dc="http://purl.org/dc/elements/1.1/"
   xmlns:cc="http://creativecommons.org/ns#"
   xmlns:rdf="http://www.w3.org/1999/02/22-rdf-syntax-ns#"
   xmlns:svg="http://www.w3.org/2000/svg"
   xmlns="http://www.w3.org/2000/svg"
   xmlns:sodipodi="http://sodipodi.sourceforge.net/DTD/sodipodi-0.dtd"
   xmlns:inkscape="http://www.inkscape.org/namespaces/inkscape"
   width="124.45313"
   height="126.42188"
   id="svg2"
   sodipodi:version="0.32"
   inkscape:version="0.48.5 r10040"
   version="1.0"
   sodipodi:docname="logo_mail.svg"
   inkscape:output_extension="org.inkscape.output.svg.inkscape">
  <defs
     id="defs4" />
  <sodipodi:namedview
     id="base"
     pagecolor="#ffffff"
     bordercolor="#666666"
     borderopacity="1.0"
     gridtolerance="10000"
     guidetolerance="10"
     objecttolerance="10"
     inkscape:pageopacity="0.0"
     inkscape:pageshadow="2"
     inkscape:zoom="2.1117978"
     inkscape:cx="2.934291"
     inkscape:cy="35.714286"
     inkscape:document-units="px"
     inkscape:current-layer="layer1"
     inkscape:window-width="1024"
     inkscape:window-height="718"
     inkscape:window-x="0"
     inkscape:window-y="0"
     showgrid="false"
     inkscape:window-maximized="0" />
  <metadata
     id="metadata7">
    <rdf:RDF>
      <cc:Work
         rdf:about="">
        <dc:format>image/svg+xml</dc:format>
        <dc:type
           rdf:resource="http://purl.org/dc/dcmitype/StillImage" />
      </cc:Work>
    </rdf:RDF>
  </metadata>
  <g
     inkscape:label="Layer 1"
     inkscape:groupmode="layer"
     id="layer1"
     transform="translate(-58.077008,-396.26214)">
    <path
       transform="translate(-188.57143,37.142859)"
       style="font-size:144px;fill:#fcfcfc;fill-opacity:1"
       d="M 290.73438,422.7521 C 290.73432,429.45525 292.39838,434.71697 295.72656,438.53725 C 299.05463,442.35758 303.62493,444.26774 309.4375,444.26772 C 315.20305,444.26774 319.7382,442.34586 323.04297,438.5021 C 326.34757,434.65837 327.99991,429.40838 328,422.7521 C 327.99991,416.18964 326.31241,410.9748 322.9375,407.10756 C 319.56242,403.24043 315.01555,401.30684 309.29688,401.30678 C 303.62493,401.30684 299.11322,403.22872 295.76172,407.07241 C 292.4101,410.91621 290.73432,416.14277 290.73438,422.7521 L 290.73438,422.7521 z M 329.05469,443.77553 C 326.2421,447.38492 323.01945,450.04508 319.38672,451.756 C 315.75383,453.46695 311.52336,454.32241 306.69531,454.32241 C 298.63275,454.32241 292.08198,451.40445 287.04297,445.5685 C 282.00386,439.73259 279.48433,432.12712 279.48438,422.7521 C 279.48433,413.37714 282.01558,405.75996 287.07813,399.90053 C 292.14057,394.04123 298.67963,391.11154 306.69531,391.11147 C 311.52336,391.11154 315.76555,391.99045 319.42188,393.74819 C 323.07804,395.50607 326.28897,398.16622 329.05469,401.72866 L 329.05469,392.51772 L 339.10938,392.51772 L 339.10938,444.26772 C 345.95302,443.23649 351.30848,440.10759 355.17578,434.881 C 359.04285,429.65447 360.97644,422.89276 360.97656,414.59585 C 360.97644,409.58027 360.23816,404.86934 358.76172,400.46303 C 357.28504,396.05685 355.04676,391.97873 352.04688,388.22866 C 347.17176,382.08811 341.23036,377.3889 334.22266,374.131 C 327.21475,370.87328 319.58586,369.24437 311.33594,369.24428 C 305.57024,369.24437 300.039,370.00609 294.74219,371.52944 C 289.44526,373.05296 284.54683,375.31468 280.04688,378.3146 C 272.68746,383.09592 266.93356,389.36545 262.78516,397.12319 C 258.6367,404.88106 256.56248,413.28339 256.5625,422.33022 C 256.56248,429.78338 257.91014,436.76774 260.60547,443.28335 C 263.30076,449.79898 267.20309,455.54116 272.3125,460.50991 C 277.23433,465.3849 282.92964,469.09974 289.39844,471.65444 C 295.86713,474.20911 302.78118,475.48646 310.14063,475.48647 C 316.18742,475.48646 322.12882,474.46693 327.96484,472.42788 C 333.80068,470.3888 339.15615,467.47084 344.03125,463.67397 L 350.35938,471.47866 C 344.49989,476.02552 338.11318,479.50598 331.19922,481.92006 C 324.28507,484.3341 317.26554,485.54113 310.14063,485.54116 C 301.46869,485.54113 293.28901,484.00598 285.60156,480.93569 C 277.91402,477.86536 271.07028,473.40052 265.07031,467.54116 C 259.07029,461.68178 254.49998,454.89663 251.35938,447.18569 C 248.21874,439.47477 246.64843,431.18963 246.64844,422.33022 C 246.64843,413.79902 248.24218,405.66621 251.42969,397.93178 C 254.61717,390.19748 259.16404,383.40061 265.07031,377.54116 C 271.11715,371.58812 278.10152,367.02953 286.02344,363.86538 C 293.94526,360.70141 302.33587,359.11938 311.19531,359.11928 C 321.13273,359.11938 330.35538,361.15845 338.86328,365.23647 C 347.37098,369.31469 354.5077,375.10374 360.27344,382.60366 C 363.78894,387.19748 366.47253,392.18966 368.32422,397.58022 C 370.17565,402.9709 371.10143,408.54902 371.10156,414.3146 C 371.10143,426.64275 367.37487,436.36931 359.92188,443.49428 C 352.46863,450.61929 342.17958,454.32241 329.05469,454.60366 L 329.05469,443.77553 z "
       id="flowRoot2168" />
  </g>
</svg>
