<svg xmlns="http://www.w3.org/2000/svg" width="124.453" height="126.422" version="1">
  <path d="M44.086 63.633c0 6.703 1.664 11.965 4.992 15.785 3.328 3.82 7.898 5.73 13.71 5.73 5.767 0 10.302-1.92 13.607-5.765 3.304-3.844 4.956-9.094 4.957-15.75 0-6.563-1.688-11.777-5.063-15.645-3.376-3.867-7.923-5.8-13.642-5.8-5.672 0-10.183 1.92-13.535 5.765-3.35 3.844-5.027 9.07-5.027 15.68zm38.32 21.023c-2.812 3.61-6.035 6.27-9.668 7.98-3.633 1.712-7.863 2.567-12.69 2.567-8.064 0-14.614-2.918-19.653-8.754-5.04-5.837-7.56-13.442-7.56-22.817S35.368 46.64 40.43 40.78c5.062-5.858 11.6-8.788 19.617-8.788 4.828 0 9.07.88 12.726 2.637 3.657 1.757 6.868 4.417 9.633 7.98v-9.212H92.46v51.75c6.845-1.03 12.2-4.16 16.067-9.386 3.867-5.227 5.8-11.99 5.8-20.285 0-5.016-.737-9.727-2.214-14.133-1.476-4.406-3.715-8.485-6.715-12.235-4.875-6.14-10.816-10.84-17.824-14.098-7.008-3.258-14.637-4.887-22.886-4.887-5.766 0-11.297.762-16.594 2.285-5.297 1.524-10.196 3.785-14.696 6.785-7.36 4.782-13.113 11.05-17.26 18.81-4.15 7.757-6.224 16.16-6.224 25.206 0 7.454 1.348 14.438 4.043 20.954 2.695 6.516 6.598 12.258 11.707 17.227 4.922 4.876 10.617 8.59 17.086 11.145 6.47 2.555 13.383 3.832 20.742 3.832 6.047 0 11.988-1.02 17.824-3.058 5.836-2.04 11.192-4.958 16.067-8.755l6.328 7.804c-5.86 4.546-12.245 8.027-19.16 10.44-6.913 2.415-13.933 3.622-21.058 3.622-8.672 0-16.85-1.535-24.54-4.606-7.686-3.07-14.53-7.535-20.53-13.394-6-5.86-10.57-12.645-13.71-20.356C1.57 80.356 0 72.07 0 63.21c0-8.53 1.594-16.663 4.78-24.398 3.19-7.734 7.736-14.53 13.642-20.39C24.47 12.47 31.452 7.91 39.375 4.746 47.297 1.582 55.687 0 64.547 0c9.937 0 19.16 2.04 27.668 6.117 8.508 4.078 15.644 9.867 21.41 17.367 3.516 4.594 6.2 9.586 8.05 14.977 1.852 5.392 2.778 10.97 2.778 16.735 0 12.328-3.727 22.055-11.18 29.18-7.453 7.125-17.742 10.828-30.867 11.11v-10.83z" font-size="144" fill="#fcfcfc"/>
</svg>
