<?xml version="1.0" encoding="UTF-8" standalone="no"?>
<!-- Created with Inkscape (http://www.inkscape.org/) -->

<svg
   xmlns:dc="http://purl.org/dc/elements/1.1/"
   xmlns:cc="http://creativecommons.org/ns#"
   xmlns:rdf="http://www.w3.org/1999/02/22-rdf-syntax-ns#"
   xmlns:svg="http://www.w3.org/2000/svg"
   xmlns="http://www.w3.org/2000/svg"
   xmlns:sodipodi="http://sodipodi.sourceforge.net/DTD/sodipodi-0.dtd"
   xmlns:inkscape="http://www.inkscape.org/namespaces/inkscape"
   id="svg2"
   version="1.1"
   inkscape:version="0.48.5 r10040"
   width="613.01251"
   height="889.58765"
   xml:space="preserve"
   sodipodi:docname="Q-RVB-Couleur.ai"><metadata
     id="metadata8"><rdf:RDF><cc:Work
         rdf:about=""><dc:format>image/svg+xml</dc:format><dc:type
           rdf:resource="http://purl.org/dc/dcmitype/StillImage" /><dc:title></dc:title></cc:Work></rdf:RDF></metadata><defs
     id="defs6"><clipPath
       clipPathUnits="userSpaceOnUse"
       id="clipPath16"><path
         d="m 0,1000 1000,0 L 1000,0 0,0 0,1000 z"
         id="path18"
         inkscape:connector-curvature="0" /></clipPath></defs><sodipodi:namedview
     pagecolor="#ffffff"
     bordercolor="#666666"
     borderopacity="1"
     objecttolerance="10"
     gridtolerance="10"
     guidetolerance="10"
     inkscape:pageopacity="0"
     inkscape:pageshadow="2"
     inkscape:window-width="640"
     inkscape:window-height="480"
     id="namedview4"
     showgrid="false"
     fit-margin-top="0"
     fit-margin-left="0"
     fit-margin-right="0"
     fit-margin-bottom="0"
     inkscape:zoom="0.1888"
     inkscape:cx="306.575"
     inkscape:cy="444.585"
     inkscape:window-x="0"
     inkscape:window-y="0"
     inkscape:window-maximized="0"
     inkscape:current-layer="g10" /><g
     id="g10"
     inkscape:groupmode="layer"
     inkscape:label="Q-RVB-Couleur"
     transform="matrix(1.25,0,0,-1.25,-318.425,1070.0026)"><g
       id="g12"><g
         id="g14"
         clip-path="url(#clipPath16)"><g
           id="g20"
           transform="translate(603.896,499.4231)"><path
             d="m 0,0 c -27.286,-28.089 -63.671,-44.94 -102.65,-44.94 -41.581,0 -77.965,16.851 -105.256,44.94 -27.286,26.84 -44.179,66.163 -44.179,108.606 0,42.445 16.893,81.771 44.179,109.233 27.291,28.089 63.675,44.319 105.256,44.319 38.979,0 75.364,-16.23 102.65,-44.319 C 26.639,190.377 44.183,151.051 44.183,108.606 44.183,66.163 26.639,26.84 0,0 m -102.515,356.579 c -68.83,0 -131.925,-28.239 -175.663,-73.7 -44.453,-45.462 -70.978,-106.078 -70.978,-174.273 0,-68.19 26.525,-129.497 70.978,-174.268 43.738,-44.774 106.833,-73.704 175.663,-73.704 65.958,0 129.053,28.93 171.357,73.704 44.449,44.771 72.412,106.078 72.412,174.268 0,68.195 -27.963,128.811 -72.412,174.273 -42.304,45.461 -105.399,73.7 -171.357,73.7"
             style="fill:#f15a24;fill-opacity:1;fill-rule:nonzero;stroke:none"
             id="path22"
             inkscape:connector-curvature="0" /></g><g
           id="g24"
           transform="translate(521.0873,302.587)"><path
             d="m 0,0 c -0.89,1.103 -1.842,2.171 -2.866,3.195 -7.715,7.715 -17.749,11.963 -28.254,11.963 -0.092,0 -0.183,-0.006 -0.275,-0.007 -0.094,10e-4 -0.187,0.007 -0.281,0.007 -10.652,0 -20.705,-4.186 -28.305,-11.786 -1.536,-1.536 -2.929,-3.166 -4.183,-4.869 L -94.046,-31.38 c -8.029,-8.028 -12.488,-18.218 -12.556,-28.692 -0.068,-10.447 4.223,-20.528 12.082,-28.387 7.677,-7.677 17.687,-11.905 28.187,-11.905 10.651,0 20.912,4.395 28.894,12.376 l 6.106,6.106 63.817,-63.817 c 8.097,-8.097 18.373,-12.556 28.936,-12.556 10.358,0 20.352,4.29 28.143,12.081 16.137,16.137 15.934,40.677 -0.472,57.083 L 0,0 z"
             style="fill:#f15a24;fill-opacity:1;fill-rule:nonzero;stroke:none"
             id="path26"
             inkscape:connector-curvature="0" /></g></g></g></g></svg>