<?xml version="1.0" encoding="UTF-8" standalone="no"?>
<!-- Created with Inkscape (http://www.inkscape.org/) -->

<svg
   xmlns:dc="http://purl.org/dc/elements/1.1/"
   xmlns:cc="http://creativecommons.org/ns#"
   xmlns:rdf="http://www.w3.org/1999/02/22-rdf-syntax-ns#"
   xmlns:svg="http://www.w3.org/2000/svg"
   xmlns="http://www.w3.org/2000/svg"
   xmlns:sodipodi="http://sodipodi.sourceforge.net/DTD/sodipodi-0.dtd"
   xmlns:inkscape="http://www.inkscape.org/namespaces/inkscape"
   id="svg2"
   version="1.1"
   inkscape:version="0.48.5 r10040"
   width="411.02304"
   height="549.21204"
   xml:space="preserve"
   sodipodi:docname="Logo carré bleu.ai"><metadata
     id="metadata8"><rdf:RDF><cc:Work
         rdf:about=""><dc:format>image/svg+xml</dc:format><dc:type
           rdf:resource="http://purl.org/dc/dcmitype/StillImage" /><dc:title></dc:title></cc:Work></rdf:RDF></metadata><defs
     id="defs6"><clipPath
       clipPathUnits="userSpaceOnUse"
       id="clipPath16"><path
         d="m 0,683.15 572.599,0 L 572.599,0 0,0 0,683.15 z"
         id="path18"
         inkscape:connector-curvature="0" /></clipPath></defs><sodipodi:namedview
     pagecolor="#ffffff"
     bordercolor="#666666"
     borderopacity="1"
     objecttolerance="10"
     gridtolerance="10"
     guidetolerance="10"
     inkscape:pageopacity="0"
     inkscape:pageshadow="2"
     inkscape:window-width="1920"
     inkscape:window-height="994"
     id="namedview4"
     showgrid="false"
     fit-margin-top="0"
     fit-margin-left="0"
     fit-margin-right="0"
     fit-margin-bottom="0"
     inkscape:zoom="0.27636683"
     inkscape:cx="212.74852"
     inkscape:cy="274.60412"
     inkscape:window-x="1280"
     inkscape:window-y="31"
     inkscape:window-maximized="1"
     inkscape:current-layer="g10" /><g
     id="g10"
     inkscape:groupmode="layer"
     inkscape:label="Logo carré bleu"
     transform="matrix(1.25,0,0,-1.25,-152.36262,701.57664)"><g
       id="g12"><g
         id="g14"
         clip-path="url(#clipPath16)"><g
           id="g20"
           transform="translate(321.9761,333.5557)"><path
             d="m 0,0 c 2.731,-15.882 0.902,-39.162 -23.317,-59.889 -16.412,-14.04 -36.122,-21.465 -56.996,-21.465 -36.597,0 -72.754,23.028 -87.933,55.999 -11.937,25.926 -9.482,53.387 6.681,78.664 22.779,29.703 58.58,48.893 98.791,48.893 0.818,0 1.628,-0.015 2.441,-0.032 l 0.009,0 c 2.53,-0.045 4.91,1.423 5.969,3.8 10e-4,0.002 10e-4,0.006 0.003,0.009 0.041,0.084 0.07,0.172 0.102,0.259 0.046,0.117 0.093,0.234 0.136,0.354 0.002,0.007 0.004,0.013 0.008,0.022 l 24.906,77.003 c 1.062,3.286 -0.663,6.825 -3.906,8.009 l -22.08,8.071 4.661,13.375 119.436,-42.532 -4.396,-12.089 -19.782,8.017 c -1.587,0.644 -3.362,0.626 -4.931,-0.047 -1.572,-0.672 -2.809,-1.944 -3.44,-3.536 L 6.392,87.274 C 6.374,87.224 6.362,87.172 6.343,87.123 6.294,86.993 6.247,86.864 6.212,86.735 6.19,86.654 6.167,86.571 6.142,86.491 6.117,86.37 6.085,86.251 6.064,86.13 6.044,86.032 6.031,85.935 6.017,85.838 5.998,85.732 5.984,85.629 5.976,85.524 5.962,85.413 5.958,85.301 5.953,85.19 5.949,85.098 5.943,85.005 5.943,84.915 c 0,-0.12 0.006,-0.238 0.012,-0.357 0.005,-0.086 0.009,-0.173 0.021,-0.261 0.012,-0.116 0.025,-0.233 0.043,-0.35 0.014,-0.09 0.025,-0.178 0.045,-0.266 C 6.085,83.57 6.111,83.463 6.136,83.355 6.16,83.259 6.19,83.166 6.216,83.071 6.243,82.972 6.274,82.876 6.31,82.78 6.343,82.677 6.384,82.578 6.423,82.477 6.46,82.391 6.497,82.306 6.536,82.222 6.583,82.116 6.633,82.013 6.69,81.91 6.729,81.831 6.774,81.754 6.817,81.676 6.875,81.575 6.938,81.477 7,81.378 7.055,81.3 7.107,81.224 7.16,81.148 7.228,81.06 7.292,80.972 7.36,80.886 7.428,80.803 7.497,80.721 7.569,80.64 7.631,80.567 7.7,80.498 7.766,80.425 7.85,80.336 7.941,80.252 8.037,80.169 8.098,80.112 8.156,80.056 8.224,80.002 8.325,79.914 8.436,79.831 8.545,79.75 8.588,79.717 8.631,79.683 8.67,79.65 31.592,63.545 48.14,40.389 56.202,14.258 57.736,7.102 57.497,-0.123 52.573,-4.817 c -2.491,-2.376 -5.634,-3.581 -9.341,-3.581 -20.977,0 -54.346,38.145 -54.679,38.53 l -0.401,-0.319 C -11.761,29.689 -2.96,17.219 0,0 m 125.202,-120.052 c -3.939,3.011 -9.578,2.256 -12.59,-1.689 l -27.467,-36.009 -44.666,44.706 c 22.039,25.082 34.084,56.928 34.084,90.63 0,22.454 -5.531,44.734 -15.995,64.432 -9.334,17.569 -22.561,33.075 -38.427,45.129 l 25.766,64.993 19.955,-8.088 c 1.61,-0.655 3.421,-0.624 5.013,0.084 1.589,0.71 2.827,2.033 3.421,3.67 l 8.878,24.422 c 0.586,1.606 0.504,3.38 -0.224,4.928 -0.728,1.55 -2.04,2.743 -3.655,3.316 L -52.31,227.335 c -1.605,0.572 -3.377,0.479 -4.917,-0.259 -1.543,-0.74 -2.724,-2.061 -3.286,-3.676 l -8.865,-25.447 c -1.156,-3.314 0.562,-6.943 3.856,-8.145 l 22.208,-8.122 -21.557,-66.669 c -35.892,-0.535 -69.551,-14.769 -94.993,-40.234 -25.939,-25.962 -40.222,-60.479 -40.222,-97.197 0,-36.715 14.283,-71.232 40.222,-97.195 6.839,-6.846 14.275,-12.87 22.187,-18.045 l -50.532,-74.01 75.417,0 c 4.961,0 8.98,4.025 8.98,8.99 0,4.964 -4.019,8.988 -8.98,8.988 l -41.39,0 32.207,47.177 c 18.249,-8.743 38.373,-13.36 59.201,-13.36 33.68,0 65.495,12.056 90.552,34.114 l 59.181,-59.237 39.931,52.339 c 3.009,3.946 2.253,9.587 -1.688,12.601"
             style="fill:#3a9bcd;fill-opacity:1;fill-rule:nonzero;stroke:none"
             id="path22"
             inkscape:connector-curvature="0" /></g></g></g></g></svg>