<svg xmlns="http://www.w3.org/2000/svg" xmlns:xlink="http://www.w3.org/1999/xlink" width="232" height="232" viewBox="167.354 0.051 232 232">
  <path fill="none" d="M348.43 83.513l23.852-19.645"/>
  <path fill="none" stroke="#EF5AA0" d="M348.43 83.513l23.852-19.645"/>
  <defs>
    <path id="a" d="M76.566 3.695h459.577V228.41H76.566z"/>
  </defs>
  <clipPath id="b">
    <use xlink:href="#a" overflow="visible"/>
  </clipPath>
  <path clip-path="url(#b)" fill="none" stroke="#EF5AA0" d="M389.943 57.117c0 5.525-4.484 10.022-10.017 10.022-5.565 0-10.054-4.498-10.054-10.023 0-5.562 4.486-10.048 10.054-10.048 5.532 0 10.017 4.485 10.017 10.047z"/>
  <path fill="none" d="M253.13 86.762l-50.793-52.156"/>
  <path fill="none" stroke="#EF5AA0" d="M253.13 86.762l-50.793-52.156M190.72 6.44c8.87-.745 16.68 5.894 17.412 14.744.75 8.896-5.85 16.727-14.734 17.448-8.905.756-16.735-5.858-17.458-14.764-.742-8.874 5.874-16.67 14.78-17.428z"/>
  <path fill="none" d="M264.943 199.575l-11.75 17.925"/>
  <path fill="none" stroke="#EF5AA0" d="M264.943 199.575l-11.75 17.925"/>
  <path fill="#EF5AA0" d="M246.515 222.5c-.784-2.516.61-5.17 3.125-5.944 2.51-.8 5.174.607 5.955 3.12.782 2.516-.612 5.17-3.13 5.956-2.498.775-5.166-.63-5.95-3.133"/>
  <path fill="none" stroke="#EF5AA0" d="M246.515 222.5c-.784-2.516.61-5.17 3.125-5.944 2.51-.8 5.174.607 5.955 3.12.782 2.516-.612 5.17-3.13 5.956-2.498.775-5.166-.63-5.95-3.133z"/>
  <defs>
    <path id="c" d="M274.578 176.51c-13.746-7.84-20.598-19.418-20.598-34.692 0-.823.002-1.65.014-2.476.028-2.16.13-4.317.47-6.45.425-2.677 1.113-5.293 2.067-7.824 1.802-4.785 4.818-10.664 8.816-14.006 9.07-7.585 18.6-11.37 28.588-11.37h1.87c8.798 0 17.275 2.858 25.478 8.61 10.053 8.352 15.078 19.035 15.078 31.937 0 9.5-2.86 18.318-8.59 26.458-8.935 9.812-19.607 14.768-31.972 14.768h-1.87c-6.042 0-12.503-1.675-19.35-4.955m62.064-84.54v22.147c-9.392-14.53-23.853-21.827-43.31-21.827-2.21 0-6.4.64-12.606 1.854-12.416 3.62-21.817 10.918-28.306 21.827-4.053 8.766-6.125 16.885-6.125 24.27 0 4.75.938 10.29 2.775 16.646 3.35 9.98 9.118 17.78 17.22 23.343 7.975 5.728 18.018 8.575 30.11 8.575h2.784c2.69 0 6.26-.6 10.734-1.847 12.137-3.978 21.053-10.558 26.72-19.653v21.5h6.788V91.97h-6.784z"/>
  </defs>
  <clipPath id="d">
    <use xlink:href="#c" overflow="visible" width="232" height="232"/>
  </clipPath>
  <linearGradient id="e" gradientUnits="userSpaceOnUse" x1="-425.116" y1="93.97" x2="-424.116" y2="93.97" gradientTransform="matrix(97.13 0 0 97.13 41539.19 -8987.3)">
    <stop offset="0" stop-color="#36C1F1"/>
    <stop offset=".5" stop-color="#179EDA"/>
    <stop offset="1" stop-color="#1E8CCC"/>
  </linearGradient>
  <path clip-path="url(#d)" fill="url(#e)" d="M246.297 91.97h97.132v96.835h-97.133z"/>
  <g>
    <path fill="#EF5AA0" d="M184.254 27.48c-2.737-4.305-1.465-9.99 2.844-12.71 4.3-2.758 9.993-1.478 12.73 2.823 2.726 4.315 1.47 9.992-2.85 12.73-4.28 2.738-9.99 1.45-12.724-2.844"/>
  </g>
  <g>
    <path fill="none" stroke="#EF5AA0" d="M184.254 27.48c-2.737-4.305-1.465-9.99 2.844-12.71 4.3-2.758 9.993-1.478 12.73 2.823 2.726 4.315 1.47 9.992-2.85 12.73-4.28 2.738-9.99 1.45-12.724-2.844z"/>
  </g>
</svg>
